<?xml version="1.0" encoding="utf-8"?>
<!-- Generator: Adobe Illustrator 24.0.3, SVG Export Plug-In . SVG Version: 6.00 Build 0)  -->
<svg version="1.1" id="Layer_1" xmlns="http://www.w3.org/2000/svg" xmlns:xlink="http://www.w3.org/1999/xlink" x="0px" y="0px"
	 viewBox="0 0 1920 842" style="enable-background:new 0 0 1920 842;" xml:space="preserve">
<style type="text/css">
	.st0{fill:#FFBF00;}
	.st1{fill:#3C405F;}
</style>
<g>
	<g>
		<path class="st0" d="M544.5,418.7c0,222.3,180,401.8,402.9,401.8c222.3,0,402.4-179.5,402.4-401.8c0-221.8-180-401.3-402.4-401.3
			C724.5,17.5,544.5,196.9,544.5,418.7z"/>
		<path class="st1" d="M1233.9,393.9c0,111-36.3,188.4-88.2,188.4c-29.6,0-46.7-19.7-46.7-54.5c0-44.1,14-83.5,14-117.3
			c0-41.5-28.5-61.7-102.2-72.6c-51.4-7.8-71.1-21.8-71.1-50.3c0-18.7,6.7-29.1,18.2-29.1c13,0,20.2,23.9,20.2,65.4
			c0,162.4-49.8,274.5-121.4,274.5c-47.2,0-74.2-52.9-74.2-145.3c0-30.6,6.7-110.5,22.3-223.6c1-9.3-4.7-17.1-13-18.2
			c-8.8-1-16.1,5.2-17.6,14.5C758,341.5,751.3,422.4,751.3,453c0,110.5,38.4,173.8,105.3,173.8c89.8,0,152.6-124,152.6-303
			c0-59.7-18.7-93.9-51.4-93.9c-28.5,0-48.8,23.9-48.8,57.6c0,40.5,29.1,68,79.4,75.8c71.6,11.4,93.4,22.3,93.4,47.2
			c0,38.9-14,78.4-14,117.3c0,52.4,28.5,83,77.8,83c69,0,116.7-88.7,116.7-216.4c0-9.3-4.2-16.1-13-16.1
			C1240.6,378.3,1233.9,385.1,1233.9,393.9z M846.8,311.4H715c-9.9,0-17.1,6.2-17.1,14.5c0,7.8,7.3,14,17.1,14h131.8
			c9.9,0,17.1-6.2,17.1-14C863.9,317.6,856.6,311.4,846.8,311.4z M1326.2,546.4c-40,0-61.2-34.2-61.2-89.2V322.8
			c0-9.9-6.2-17.1-15-17.1c-9.3,0-16.1,7.3-16.1,17.1v134.4c0,72.6,33.2,117.8,92.4,117.8c36.3,0,76.3-27,93.4-63.3l-6.2-10.9v56.6
			c0,10.4,6.2,17.6,15.6,17.6s15.6-7.3,15.6-17.6v-234c0-10.4-6.2-17.6-15.6-17.6s-15.6,7.3-15.6,17.6v147.9
			C1397.3,514.3,1359.9,546.4,1326.2,546.4z M566.1,575c116.2,0,207.6-99.6,223.6-242.8c1-8.8-5.2-15.6-14-15.6
			c-9.3,0-14,6.7-15,16.1c-14,126.1-93.9,213.8-194.6,213.8c-64.3,0-109.5-42.5-109.5-104.3c0-63.8,37.4-107.9,91.3-107.9
			c40,0,69,22.8,69,54c0,33.2-22.3,48.8-69,48.8c-33.2,0-71.6-2.1-104.8-5.2v28.5c33.2,3.1,71.6,5.2,104.8,5.2
			c63.3,0,100.1-28,100.1-77.3c0-47.7-42-82.5-100.1-82.5c-72.1,0-122.5,56-122.5,136.5C425.4,520.5,483,575,566.1,575z
			 M424.8,557.3c0-8.8-7.3-14.5-17.6-14.5h-151V323.3c0-10.4-6.2-17.6-16.1-17.6c-9.9,0-16.1,7.3-16.1,17.6v231.4
			c0,10.4,7.3,17.6,17.6,17.6h165.5C417.5,572.4,424.8,566.7,424.8,557.3z M1601.8,575c60.2,0,102.2-32.7,102.2-79.9
			c0-43.1-27-63.3-97-75.8c-56-9.9-77.3-22.3-77.3-45.1c0-23.3,25.4-40,62.3-40c20.8,0,43.6,5.2,61.7,15c9.9,5.2,18.2,3.6,22.3-3.6
			c4.7-8.3,1.6-15.6-7.8-20.8c-21.8-13-49.8-19.2-76.3-19.2c-55,0-93.4,28-93.4,68.5c0,41.5,25.9,59.7,95,71.6
			c57.6,9.9,79.4,23.3,79.4,49.3c0,30.1-29.1,51.4-71.1,51.4c-26.5,0-55.5-9.3-76.3-25.9c-7.8-6.2-17.1-6.2-22.8,0
			c-6.2,7.3-4.7,17.1,3.6,23.9C1529.7,563.6,1565.5,575,1601.8,575z"/>
	</g>
</g>
</svg>
